<svg xmlns="http://www.w3.org/2000/svg" width="13.658" height="14" viewBox="0 0 13.658 14">
  <path id="filter_off" d="M13.566,0H1.084A.586.586,0,0,0,.561.318.6.6,0,0,0,.608.937L5.18,7.379l0,.007a1.307,1.307,0,0,1,.257.775v5.252A.584.584,0,0,0,6.026,14a.6.6,0,0,0,.23-.046l2.57-.98a.556.556,0,0,0,.383-.549V8.16a1.307,1.307,0,0,1,.256-.775l0-.007L14.042.937a.594.594,0,0,0,.046-.619A.586.586,0,0,0,13.566,0ZM8.892,6.964A2.023,2.023,0,0,0,8.5,8.16v4.178l-2.345.894V8.16a2.022,2.022,0,0,0-.394-1.2L1.318.71H13.331Zm0,0" transform="translate(-0.496 0)"/>
</svg>
