<svg xmlns="http://www.w3.org/2000/svg" width="48" height="34.765" viewBox="0 0 48 34.765">
  <g id="sensor" transform="translate(0 -70.587)">
    <path id="Path_106" data-name="Path 106" d="M413.86,71a1.406,1.406,0,1,0-1.989,1.989,21.2,21.2,0,0,1,0,29.964,1.406,1.406,0,1,0,1.989,1.989,24.011,24.011,0,0,0,0-33.941Z" transform="translate(-372.885 0)" fill="rgba(0,0,0,0.66)"/>
    <path id="Path_107" data-name="Path 107" d="M368.44,116.419a1.406,1.406,0,1,0-1.989,1.989,15.173,15.173,0,0,1,0,21.448,1.406,1.406,0,0,0,1.989,1.989,17.985,17.985,0,0,0,0-25.425Z" transform="translate(-331.723 -41.162)" fill="rgba(0,0,0,0.66)"/>
    <path id="Path_108" data-name="Path 108" d="M322.987,161.871A1.406,1.406,0,1,0,321,163.86a9.144,9.144,0,0,1,0,12.925,1.406,1.406,0,1,0,1.989,1.989,11.956,11.956,0,0,0,0-16.9Z" transform="translate(-290.531 -82.353)" fill="rgba(0,0,0,0.66)"/>
    <path id="Path_109" data-name="Path 109" d="M2.813,87.97a21.046,21.046,0,0,1,6.2-14.982A1.406,1.406,0,0,0,7.025,71a24.011,24.011,0,0,0,0,33.941,1.406,1.406,0,1,0,1.989-1.989,21.046,21.046,0,0,1-6.2-14.982Z" transform="translate(0 0)" fill="rgba(0,0,0,0.66)"/>
    <path id="Path_110" data-name="Path 110" d="M67.031,129.131a15.064,15.064,0,0,1,4.439-10.724,1.406,1.406,0,0,0-1.989-1.989,17.985,17.985,0,0,0,0,25.425,1.406,1.406,0,0,0,1.989-1.989A15.064,15.064,0,0,1,67.031,129.131Z" transform="translate(-58.198 -41.161)" fill="rgba(0,0,0,0.66)"/>
    <path id="Path_111" data-name="Path 111" d="M133.975,161.871a1.406,1.406,0,0,0-1.989,0,11.957,11.957,0,0,0,0,16.9,1.406,1.406,0,0,0,1.989-1.989,9.144,9.144,0,0,1,0-12.925A1.407,1.407,0,0,0,133.975,161.871Z" transform="translate(-116.442 -82.353)" fill="rgba(0,0,0,0.66)"/>
    <path id="Path_112" data-name="Path 112" d="M198.725,192.8a5.925,5.925,0,1,0,5.925,5.925A5.932,5.932,0,0,0,198.725,192.8Zm0,9.037a3.112,3.112,0,1,1,3.112-3.112A3.116,3.116,0,0,1,198.725,201.837Z" transform="translate(-174.725 -110.755)" fill="rgba(0,0,0,0.66)"/>
  </g>
</svg>
